<svg width="34" height="34" viewBox="0 0 34 34" fill="none" xmlns="http://www.w3.org/2000/svg">
<path fill-rule="evenodd" clip-rule="evenodd" d="M29.0208 0.736513C28.2398 -0.0444806 26.9734 -0.0445237 26.1924 0.736513L17 9.9289L7.80761 0.736513C7.02662 -0.0444806 5.76022 -0.0445237 4.97918 0.736513L0.736544 4.97915C-0.0444927 5.76019 -0.0444496 7.02659 0.736544 7.80758L9.92893 17L0.736544 26.1924C-0.0444927 26.9734 -0.0444496 28.2398 0.736544 29.0208L4.97918 33.2634C5.76018 34.0444 7.02657 34.0445 7.80761 33.2634L17 24.071L26.1924 33.2634C26.9734 34.0444 28.2398 34.0445 29.0208 33.2634L33.2635 29.0208C34.0445 28.2397 34.0444 26.9734 33.2635 26.1924L24.0711 17L33.2635 7.80758C34.0445 7.02654 34.0444 5.76015 33.2635 4.97915L29.0208 0.736513Z" fill="white"/>
</svg>
